<svg xmlns="http://www.w3.org/2000/svg" viewBox="0 0 96 96" fill="none">
  <defs>
    <linearGradient id="grad3" x1="0%" y1="0%" x2="100%" y2="100%">
      <stop offset="0%" style="stop-color:#FFD93D;stop-opacity:1" />
      <stop offset="100%" style="stop-color:#FFC93D;stop-opacity:1" />
    </linearGradient>
  </defs>
  <rect width="96" height="96" rx="24" fill="url(#grad3)"/>
  <!-- Head -->
  <circle cx="48" cy="28" r="14" fill="#fff"/>
  <!-- Body -->
  <ellipse cx="48" cy="56" rx="16" ry="18" fill="#fff"/>
  <!-- Star on chest (achievement/goal) -->
  <path d="M48 48 L51 55 L58 55 L52 60 L54 67 L48 62 L42 67 L44 60 L38 55 L45 55 Z" fill="#FFD93D"/>
  <!-- Arms pointing up -->
  <path d="M35 48 L28 35" stroke="#fff" stroke-width="3" fill="none" stroke-linecap="round"/>
  <path d="M61 48 L68 35" stroke="#fff" stroke-width="3" fill="none" stroke-linecap="round"/>
  <!-- Legs -->
  <path d="M42 70 L40 85" stroke="#fff" stroke-width="3" fill="none" stroke-linecap="round"/>
  <path d="M54 70 L56 85" stroke="#fff" stroke-width="3" fill="none" stroke-linecap="round"/>
  <!-- Happy confident face -->
  <circle cx="45" cy="26" r="2" fill="#FFD93D"/>
  <circle cx="51" cy="26" r="2" fill="#FFD93D"/>
  <path d="M45 30 Q48 31.5 51 30" stroke="#FFD93D" stroke-width="1.5" fill="none" stroke-linecap="round"/>
</svg>