<svg xmlns="http://www.w3.org/2000/svg" viewBox="0 0 96 96" fill="none">
  <defs>
    <linearGradient id="grad2" x1="0%" y1="0%" x2="100%" y2="100%">
      <stop offset="0%" style="stop-color:#4ECDC4;stop-opacity:1" />
      <stop offset="100%" style="stop-color:#44B0B0;stop-opacity:1" />
    </linearGradient>
  </defs>
  <rect width="96" height="96" rx="24" fill="url(#grad2)"/>
  <!-- Head -->
  <circle cx="48" cy="28" r="14" fill="#fff"/>
  <!-- Body with heart symbol -->
  <ellipse cx="48" cy="56" rx="16" ry="18" fill="#fff"/>
  <!-- Heart on chest -->
  <path d="M48 50 L52 46 Q54 44 56 46 Q58 48 56 52 Q54 54 48 58 Q42 54 40 52 Q38 48 40 46 Q42 44 44 46 Z" fill="#4ECDC4"/>
  <!-- Arms up in celebration -->
  <path d="M35 48 L28 35" stroke="#fff" stroke-width="3" fill="none" stroke-linecap="round"/>
  <path d="M61 48 L68 35" stroke="#fff" stroke-width="3" fill="none" stroke-linecap="round"/>
  <!-- Legs -->
  <path d="M42 70 L40 85" stroke="#fff" stroke-width="3" fill="none" stroke-linecap="round"/>
  <path d="M54 70 L56 85" stroke="#fff" stroke-width="3" fill="none" stroke-linecap="round"/>
  <!-- Happy face -->
  <circle cx="45" cy="26" r="2" fill="#4ECDC4"/>
  <circle cx="51" cy="26" r="2" fill="#4ECDC4"/>
  <path d="M45 29 Q48 31 51 29" stroke="#4ECDC4" stroke-width="1.5" fill="none" stroke-linecap="round"/>
</svg>